<svg width="15" height="15" viewBox="0 0 15 15" fill="none" xmlns="http://www.w3.org/2000/svg">
<path d="M12.591 6.07711L7.93824 10.7299C7.8734 10.795 7.79636 10.8466 7.71153 10.8818C7.62669 10.917 7.53574 10.9352 7.44388 10.9352C7.35203 10.9352 7.26108 10.917 7.17624 10.8818C7.09141 10.8466 7.01437 10.795 6.94953 10.7299L2.29675 6.07711C2.16564 5.946 2.09198 5.76817 2.09198 5.58275C2.09198 5.39733 2.16564 5.2195 2.29675 5.08839C2.42786 4.95728 2.60569 4.88362 2.79111 4.88362C2.97653 4.88362 3.15435 4.95728 3.28547 5.08839L7.44447 9.2474L11.6035 5.08781C11.7346 4.9567 11.9124 4.88304 12.0978 4.88304C12.2832 4.88304 12.4611 4.9567 12.5922 5.08781C12.7233 5.21892 12.797 5.39675 12.797 5.58217C12.797 5.76759 12.7233 5.94541 12.5922 6.07653L12.591 6.07711Z" fill="#101918"/>
</svg>
