<svg width="15" height="15" viewBox="0 0 15 15" fill="none" xmlns="http://www.w3.org/2000/svg">
<g clip-path="url(#clip0_1_250)">
<path d="M12.5625 5.58339C12.563 4.72088 12.3455 3.87223 11.9303 3.11627C11.515 2.3603 10.9155 1.72154 10.1873 1.25931C9.45908 0.797085 8.62588 0.526382 7.76507 0.472349C6.90426 0.418317 6.04375 0.582706 5.26347 0.950249C4.48319 1.31779 3.80846 1.87657 3.30193 2.57467C2.79541 3.27278 2.47353 4.08757 2.36618 4.94337C2.25883 5.79917 2.36951 6.66823 2.68793 7.46981C3.00634 8.27139 3.52217 8.9795 4.1875 9.52836V13.9584C4.18744 14.0377 4.20768 14.1158 4.24629 14.1851C4.2849 14.2544 4.34059 14.3127 4.40809 14.3545C4.47558 14.3962 4.55262 14.42 4.63189 14.4235C4.71116 14.4271 4.79002 14.4103 4.86099 14.3748L7.44444 13.086L10.0285 14.3777C10.0933 14.4087 10.1643 14.4244 10.2361 14.4237C10.3595 14.4237 10.4779 14.3746 10.5651 14.2874C10.6524 14.2001 10.7014 14.0818 10.7014 13.9584V9.52836C11.2835 9.04891 11.7523 8.44653 12.0741 7.76446C12.3959 7.0824 12.5627 6.33755 12.5625 5.58339ZM3.25694 5.58339C3.25694 4.75518 3.50253 3.94557 3.96266 3.25694C4.42279 2.56831 5.07679 2.03159 5.84195 1.71464C6.60712 1.3977 7.44909 1.31478 8.26138 1.47635C9.07368 1.63793 9.81982 2.03675 10.4055 2.62238C10.9911 3.20801 11.3899 3.95415 11.5515 4.76645C11.7131 5.57874 11.6301 6.42071 11.3132 7.18588C10.9962 7.95104 10.4595 8.60504 9.77089 9.06517C9.08226 9.5253 8.27265 9.77089 7.44444 9.77089C6.33423 9.76966 5.26983 9.32808 4.48479 8.54304C3.69975 7.758 3.25817 6.69361 3.25694 5.58339ZM9.77083 13.2058L7.65207 12.1467C7.58743 12.1144 7.51614 12.0975 7.44386 12.0975C7.37158 12.0975 7.30029 12.1144 7.23565 12.1467L5.11805 13.2058V10.1414C5.83828 10.5095 6.63559 10.7014 7.44444 10.7014C8.25329 10.7014 9.0506 10.5095 9.77083 10.1414V13.2058ZM7.44444 8.84033C8.0886 8.84033 8.7183 8.64932 9.2539 8.29144C9.7895 7.93356 10.207 7.4249 10.4535 6.82977C10.7 6.23464 10.7645 5.57978 10.6388 4.94799C10.5131 4.31621 10.2029 3.73587 9.74745 3.28038C9.29196 2.82489 8.71163 2.5147 8.07984 2.38903C7.44805 2.26336 6.79319 2.32786 6.19806 2.57437C5.60293 2.82088 5.09427 3.23833 4.73639 3.77393C4.37851 4.30953 4.1875 4.93923 4.1875 5.58339C4.18842 6.4469 4.53186 7.27478 5.14245 7.88538C5.75305 8.49597 6.58093 8.83941 7.44444 8.84033ZM7.44444 3.257C7.90456 3.257 8.35434 3.39344 8.73691 3.64907C9.11949 3.9047 9.41767 4.26803 9.59374 4.69312C9.76982 5.11821 9.81589 5.58597 9.72613 6.03725C9.63637 6.48852 9.4148 6.90304 9.08945 7.2284C8.7641 7.55375 8.34957 7.77531 7.8983 7.86508C7.44702 7.95484 6.97926 7.90877 6.55417 7.73269C6.12908 7.55661 5.76575 7.25843 5.51012 6.87586C5.25449 6.49329 5.11805 6.04351 5.11805 5.58339C5.11805 4.96639 5.36315 4.37467 5.79944 3.93838C6.23572 3.5021 6.82744 3.257 7.44444 3.257Z" fill="#00352E"/>
</g>
<defs>
<clipPath id="clip0_1_250">
<rect width="14.8889" height="14.8889" fill="white"/>
</clipPath>
</defs>
</svg>
