<svg width="67" height="67" viewBox="0 0 67 67" fill="none" xmlns="http://www.w3.org/2000/svg">
<rect x="0.465278" y="0.465278" width="66.0694" height="66.0694" rx="33.0347" fill="#017D6E"/>
<rect x="0.465278" y="0.465278" width="66.0694" height="66.0694" rx="33.0347" stroke="#34978B" stroke-width="0.930556"/>
<path d="M21.7749 33.3139C21.8727 33.3872 21.9839 33.4406 22.1023 33.4709C22.2207 33.5012 22.3439 33.5079 22.4649 33.4907C22.5858 33.4734 22.7022 33.4324 22.8074 33.3702C22.9125 33.3079 23.0044 33.2256 23.0777 33.1278C23.6411 32.3766 24.3717 31.7669 25.2116 31.3469C26.0515 30.927 26.9776 30.7084 27.9166 30.7084C28.8556 30.7084 29.7817 30.927 30.6216 31.3469C31.4615 31.7669 32.1921 32.3766 32.7555 33.1278C32.9037 33.3251 33.1243 33.4554 33.3686 33.49C33.6129 33.5247 33.861 33.4609 34.0583 33.3127C34.1286 33.2604 34.1909 33.1981 34.2432 33.1278C34.8066 32.3766 35.5372 31.7669 36.3771 31.3469C37.217 30.927 38.1431 30.7084 39.0821 30.7084C40.0211 30.7084 40.9472 30.927 41.7871 31.3469C42.627 31.7669 43.3576 32.3766 43.921 33.1278C44.0692 33.3252 44.2898 33.4557 44.5342 33.4905C44.7787 33.5253 45.0269 33.4616 45.2244 33.3133C45.4218 33.1651 45.5523 32.9445 45.5871 32.7001C45.6218 32.4556 45.5581 32.2074 45.4099 32.01C44.5862 30.9057 43.4878 30.0363 42.2239 29.4882C42.9168 28.8555 43.4022 28.0282 43.6165 27.1148C43.8308 26.2013 43.764 25.2444 43.4247 24.3697C43.0854 23.4949 42.4896 22.7431 41.7155 22.213C40.9413 21.683 40.025 21.3993 39.0868 21.3993C38.1485 21.3993 37.2322 21.683 36.458 22.213C35.6839 22.7431 35.0881 23.4949 34.7488 24.3697C34.4095 25.2444 34.3427 26.2013 34.557 27.1148C34.7713 28.0282 35.2567 28.8555 35.9496 29.4882C35.037 29.8828 34.208 30.4477 33.5069 31.1527C32.8058 30.4477 31.9768 29.8828 31.0642 29.4882C31.7571 28.8555 32.2426 28.0282 32.4569 27.1148C32.6712 26.2013 32.6043 25.2444 32.265 24.3697C31.9258 23.4949 31.33 22.7431 30.5558 22.213C29.7816 21.683 28.8653 21.3993 27.9271 21.3993C26.9888 21.3993 26.0725 21.683 25.2983 22.213C24.5242 22.7431 23.9284 23.4949 23.5891 24.3697C23.2498 25.2444 23.183 26.2013 23.3973 27.1148C23.6116 28.0282 24.097 28.8555 24.7899 29.4882C23.5205 30.0345 22.4167 30.9045 21.5888 32.0111C21.5155 32.1089 21.4622 32.2201 21.4318 32.3385C21.4015 32.4569 21.3948 32.5801 21.4121 32.7011C21.4293 32.822 21.4703 32.9384 21.5325 33.0436C21.5948 33.1487 21.6772 33.2406 21.7749 33.3139ZM39.0833 23.2639C39.6354 23.2639 40.1751 23.4276 40.6342 23.7344C41.0933 24.0411 41.4511 24.4771 41.6624 24.9872C41.8737 25.4974 41.929 26.0587 41.8213 26.6002C41.7136 27.1417 41.4477 27.6392 41.0573 28.0296C40.6669 28.42 40.1694 28.6859 39.6279 28.7936C39.0864 28.9013 38.5251 28.846 38.0149 28.6347C37.5048 28.4234 37.0688 28.0656 36.7621 27.6065C36.4553 27.1475 36.2916 26.6077 36.2916 26.0556C36.2916 25.3152 36.5857 24.6051 37.1093 24.0816C37.6328 23.558 38.3429 23.2639 39.0833 23.2639ZM27.9166 23.2639C28.4687 23.2639 29.0085 23.4276 29.4676 23.7344C29.9267 24.0411 30.2845 24.4771 30.4958 24.9872C30.7071 25.4974 30.7623 26.0587 30.6546 26.6002C30.5469 27.1417 30.281 27.6392 29.8906 28.0296C29.5002 28.42 29.0028 28.6859 28.4612 28.7936C27.9197 28.9013 27.3584 28.846 26.8483 28.6347C26.3382 28.4234 25.9022 28.0656 25.5954 27.6065C25.2887 27.1475 25.1249 26.6077 25.1249 26.0556C25.1249 25.3152 25.4191 24.6051 25.9426 24.0816C26.4661 23.558 27.1762 23.2639 27.9166 23.2639ZM42.2239 41.5854C42.9168 40.9528 43.4022 40.1254 43.6165 39.212C43.8308 38.2985 43.764 37.3417 43.4247 36.4669C43.0854 35.5921 42.4896 34.8404 41.7155 34.3103C40.9413 33.7802 40.025 33.4965 39.0868 33.4965C38.1485 33.4965 37.2322 33.7802 36.458 34.3103C35.6839 34.8404 35.0881 35.5921 34.7488 36.4669C34.4095 37.3417 34.3427 38.2985 34.557 39.212C34.7713 40.1254 35.2567 40.9528 35.9496 41.5854C35.037 41.98 34.208 42.5449 33.5069 43.2499C32.8058 42.5449 31.9768 41.98 31.0642 41.5854C31.7571 40.9528 32.2426 40.1254 32.4569 39.212C32.6712 38.2985 32.6043 37.3417 32.265 36.4669C31.9258 35.5921 31.33 34.8404 30.5558 34.3103C29.7816 33.7802 28.8653 33.4965 27.9271 33.4965C26.9888 33.4965 26.0725 33.7802 25.2983 34.3103C24.5242 34.8404 23.9284 35.5921 23.5891 36.4669C23.2498 37.3417 23.183 38.2985 23.3973 39.212C23.6116 40.1254 24.097 40.9528 24.7899 41.5854C23.5205 42.1317 22.4167 43.0017 21.5888 44.1084C21.5155 44.2061 21.4622 44.3174 21.4318 44.4357C21.4015 44.5541 21.3948 44.6773 21.4121 44.7983C21.4293 44.9193 21.4703 45.0356 21.5325 45.1408C21.5948 45.2459 21.6772 45.3378 21.7749 45.4111C21.8727 45.4844 21.9839 45.5378 22.1023 45.5681C22.2207 45.5985 22.3439 45.6052 22.4649 45.5879C22.5858 45.5706 22.7022 45.5297 22.8074 45.4674C22.9125 45.4051 23.0044 45.3228 23.0777 45.225C23.6411 44.4738 24.3717 43.8641 25.2116 43.4441C26.0515 43.0242 26.9776 42.8056 27.9166 42.8056C28.8556 42.8056 29.7817 43.0242 30.6216 43.4441C31.4615 43.8641 32.1921 44.4738 32.7555 45.225C32.9037 45.4223 33.1243 45.5526 33.3686 45.5873C33.6129 45.6219 33.861 45.5582 34.0583 45.41C34.1286 45.3577 34.1909 45.2954 34.2432 45.225C34.8066 44.4738 35.5372 43.8641 36.3771 43.4441C37.217 43.0242 38.1431 42.8056 39.0821 42.8056C40.0211 42.8056 40.9472 43.0242 41.7871 43.4441C42.627 43.8641 43.3576 44.4738 43.921 45.225C44.0692 45.4225 44.2898 45.5529 44.5342 45.5877C44.7787 45.6225 45.0269 45.5588 45.2244 45.4105C45.4218 45.2623 45.5523 45.0417 45.5871 44.7973C45.6218 44.5529 45.5581 44.3046 45.4099 44.1072C44.5862 43.0029 43.4878 42.1335 42.2239 41.5854ZM27.9166 35.3611C28.4687 35.3611 29.0085 35.5249 29.4676 35.8316C29.9267 36.1384 30.2845 36.5744 30.4958 37.0845C30.7071 37.5946 30.7623 38.1559 30.6546 38.6974C30.5469 39.239 30.281 39.7364 29.8906 40.1268C29.5002 40.5172 29.0028 40.7831 28.4612 40.8908C27.9197 40.9985 27.3584 40.9433 26.8483 40.732C26.3382 40.5207 25.9022 40.1628 25.5954 39.7038C25.2887 39.2447 25.1249 38.7049 25.1249 38.1528C25.1249 37.4124 25.4191 36.7023 25.9426 36.1788C26.4661 35.6553 27.1762 35.3611 27.9166 35.3611ZM39.0833 35.3611C39.6354 35.3611 40.1751 35.5249 40.6342 35.8316C41.0933 36.1384 41.4511 36.5744 41.6624 37.0845C41.8737 37.5946 41.929 38.1559 41.8213 38.6974C41.7136 39.239 41.4477 39.7364 41.0573 40.1268C40.6669 40.5172 40.1694 40.7831 39.6279 40.8908C39.0864 40.9985 38.5251 40.9433 38.0149 40.732C37.5048 40.5207 37.0688 40.1628 36.7621 39.7038C36.4553 39.2447 36.2916 38.7049 36.2916 38.1528C36.2916 37.4124 36.5857 36.7023 37.1093 36.1788C37.6328 35.6553 38.3429 35.3611 39.0833 35.3611Z" fill="white"/>
</svg>
