<svg width="67" height="67" viewBox="0 0 67 67" fill="none" xmlns="http://www.w3.org/2000/svg">
<rect x="0.465278" y="0.465278" width="66.0694" height="66.0694" rx="33.0347" fill="#017D6E"/>
<rect x="0.465278" y="0.465278" width="66.0694" height="66.0694" rx="33.0347" stroke="#34978B" stroke-width="0.930556"/>
<path d="M47.4153 24.1816C47.402 23.9539 47.3056 23.7391 47.1443 23.5778C46.9831 23.4166 46.7682 23.3201 46.5406 23.3068C40.5199 22.9579 35.6856 24.7888 33.6082 28.2179C32.2356 30.4849 32.2379 33.2382 33.5896 35.8647C32.8202 36.7805 32.258 37.8519 31.9413 39.0053L30.0488 37.1058C30.9584 35.2063 30.9235 33.2266 29.9325 31.5818C28.3971 29.0472 24.8528 27.6886 20.4524 27.9468C20.2248 27.9601 20.0099 28.0566 19.8487 28.2178C19.6874 28.3791 19.591 28.5939 19.5777 28.8216C19.3183 33.2219 20.6781 36.7662 23.2127 38.3016C24.0491 38.8126 25.0103 39.0831 25.9904 39.0833C26.9418 39.0715 27.8784 38.8461 28.7309 38.4237L31.6389 41.3317V44.6666C31.6389 44.9134 31.7369 45.1501 31.9114 45.3246C32.086 45.4991 32.3226 45.5971 32.5694 45.5971C32.8162 45.5971 33.0529 45.4991 33.2274 45.3246C33.402 45.1501 33.5 44.9134 33.5 44.6666V41.2363C33.4959 39.7559 33.9996 38.3189 34.9272 37.1651C36.1241 37.7906 37.4515 38.1254 38.8018 38.1422C40.1074 38.1464 41.3887 37.7898 42.5043 37.1116C45.9334 35.0365 47.7689 30.2023 47.4153 24.1816ZM24.1723 36.7103C22.388 35.6297 21.3783 33.0719 21.4028 29.7777C24.6969 29.7498 27.2548 30.7629 28.3354 32.5473C28.8996 33.4778 28.9915 34.5631 28.6216 35.6809L25.7822 32.8416C25.6063 32.6744 25.372 32.5826 25.1294 32.5857C24.8867 32.5888 24.6549 32.6866 24.4833 32.8582C24.3117 33.0298 24.2139 33.2616 24.2108 33.5043C24.2077 33.7469 24.2995 33.9812 24.4666 34.1571L27.306 36.9965C26.1882 37.3664 25.1041 37.2745 24.1723 36.7103ZM41.54 35.5216C39.9813 36.4649 38.1493 36.537 36.2882 35.7542L42.5334 29.5078C42.7005 29.3319 42.7923 29.0976 42.7892 28.855C42.7861 28.6123 42.6883 28.3805 42.5167 28.2089C42.3451 28.0373 42.1133 27.9395 41.8706 27.9364C41.628 27.9333 41.3937 28.0251 41.2178 28.1923L34.9714 34.4305C34.1851 32.5694 34.2561 30.7362 35.2041 29.1787C36.8256 26.5033 40.6711 25.0121 45.5949 25.1272C45.7066 30.0499 44.2177 33.9001 41.54 35.5216Z" fill="white"/>
</svg>
