<svg width="67" height="67" viewBox="0 0 67 67" fill="none" xmlns="http://www.w3.org/2000/svg">
<rect x="0.465278" y="0.465278" width="66.0694" height="66.0694" rx="33.0347" fill="#017D6E"/>
<rect x="0.465278" y="0.465278" width="66.0694" height="66.0694" rx="33.0347" stroke="#34978B" stroke-width="0.930556"/>
<path d="M29.808 22.9149C29.7476 22.6766 29.7838 22.4241 29.9089 22.2125C30.034 22.0009 30.2378 21.8473 30.4757 21.7855C32.4594 21.2738 34.5406 21.2738 36.5243 21.7855C36.744 21.8417 36.9356 21.9763 37.0631 22.1639C37.1906 22.3515 37.2452 22.5791 37.2166 22.8042C37.1881 23.0292 37.0783 23.236 36.908 23.3858C36.7376 23.5355 36.5185 23.6179 36.2917 23.6175C36.2132 23.6171 36.135 23.6069 36.059 23.5872C34.3805 23.1539 32.6195 23.1539 30.941 23.5872C30.8224 23.6176 30.6991 23.6243 30.5779 23.607C30.4568 23.5896 30.3403 23.5485 30.235 23.4861C30.1298 23.4236 30.0379 23.341 29.9647 23.243C29.8914 23.145 29.8382 23.0335 29.808 22.9149ZM22.4904 31.4062C22.6081 31.4389 22.7312 31.4481 22.8525 31.4333C22.9739 31.4184 23.0911 31.3798 23.1975 31.3196C23.3039 31.2595 23.3974 31.1789 23.4726 31.0826C23.5479 30.9863 23.6034 30.8761 23.6361 30.7583C24.0997 29.0884 24.9803 27.5638 26.1951 26.3277C26.3542 26.1493 26.4385 25.9166 26.4306 25.6777C26.4227 25.4388 26.3232 25.2122 26.1527 25.0447C25.9822 24.8772 25.7538 24.7817 25.5149 24.778C25.2759 24.7744 25.0447 24.8628 24.8691 25.0249C23.4339 26.4854 22.3933 28.2865 21.8448 30.2593C21.8119 30.377 21.8024 30.5 21.8171 30.6214C21.8317 30.7427 21.8701 30.86 21.93 30.9665C21.99 31.073 22.0703 31.1667 22.1665 31.2421C22.2626 31.3176 22.3727 31.3733 22.4904 31.4062ZM36.059 43.4127C34.3805 43.8461 32.6195 43.8461 30.941 43.4127C30.7035 43.3553 30.4529 43.3935 30.2434 43.5192C30.0339 43.6449 29.8822 43.8479 29.8211 44.0845C29.76 44.3211 29.7944 44.5722 29.9169 44.7836C30.0394 44.995 30.2401 45.1498 30.4757 45.2145C32.4594 45.7261 34.5406 45.7261 36.5243 45.2145C36.7599 45.1498 36.9606 44.995 37.0831 44.7836C37.2056 44.5722 37.24 44.3211 37.1789 44.0845C37.1178 43.8479 36.9661 43.6449 36.7566 43.5192C36.5471 43.3935 36.2965 43.3553 36.059 43.4127ZM43.3639 30.7607C43.4299 30.9985 43.5877 31.2004 43.8026 31.3219C44.0175 31.4434 44.2718 31.4746 44.5096 31.4086C44.7475 31.3425 44.9494 31.1847 45.0709 30.9699C45.1924 30.755 45.2236 30.5007 45.1575 30.2628C44.6087 28.2902 43.5681 26.4892 42.1332 25.0284C42.0484 24.9379 41.9464 24.8652 41.833 24.8146C41.7197 24.7641 41.5974 24.7367 41.4734 24.7341C41.3493 24.7315 41.226 24.7538 41.1107 24.7995C40.9953 24.8453 40.8903 24.9137 40.8018 25.0007C40.7133 25.0876 40.6431 25.1914 40.5953 25.3059C40.5474 25.4204 40.523 25.5433 40.5234 25.6674C40.5238 25.7915 40.549 25.9142 40.5975 26.0284C40.6461 26.1426 40.717 26.246 40.806 26.3324C42.0186 27.5688 42.8982 29.0923 43.3627 30.7607H43.3639ZM45.1599 36.7383C44.5442 38.9579 43.3058 40.9547 41.5912 42.4926C41.4851 42.5884 41.3585 42.6584 41.221 42.6973C41.0835 42.7362 40.9389 42.7429 40.7984 42.7169C40.658 42.6909 40.5253 42.6329 40.4109 42.5474C40.2964 42.462 40.2032 42.3513 40.1384 42.2239C39.5161 40.9979 38.5664 39.9682 37.3947 39.2488C36.223 38.5295 34.8749 38.1488 33.5 38.1488C32.1251 38.1488 30.777 38.5295 29.6053 39.2488C28.4336 39.9682 27.4839 40.9979 26.8617 42.2239C26.7969 42.3512 26.7038 42.4618 26.5895 42.5472C26.4751 42.6327 26.3427 42.6907 26.2024 42.7168C26.062 42.7429 25.9176 42.7364 25.7802 42.6977C25.6428 42.659 25.5161 42.5893 25.41 42.4938C23.6953 40.955 22.4569 38.9574 21.8413 36.7372C21.7754 36.4993 21.8068 36.245 21.9284 36.0303C22.05 35.8155 22.2519 35.6579 22.4898 35.592C22.7276 35.5261 22.9819 35.5574 23.1967 35.6791C23.4114 35.8007 23.5691 36.0026 23.635 36.2405C24.0512 37.7443 24.8073 39.1324 25.845 40.2977C26.8833 38.7918 28.3445 37.6272 30.0442 36.9512C29.1321 36.2332 28.4665 35.2489 28.1399 34.1351C27.8133 33.0213 27.842 31.8334 28.2219 30.7367C28.6018 29.6399 29.314 28.6888 30.2596 28.0156C31.2051 27.3425 32.337 26.9807 33.4977 26.9807C34.6584 26.9807 35.7902 27.3425 36.7358 28.0156C37.6813 28.6888 38.3936 29.6399 38.7735 30.7367C39.1534 31.8334 39.182 33.0213 38.8554 34.1351C38.5288 35.2489 37.8632 36.2332 36.9512 36.9512C38.6508 37.6272 40.1121 38.7918 41.1503 40.2977C42.188 39.1324 42.9442 37.7443 43.3604 36.2405C43.3931 36.1227 43.4487 36.0125 43.5239 35.9162C43.5992 35.8199 43.6927 35.7394 43.7991 35.6792C43.9055 35.6191 44.0227 35.5804 44.144 35.5656C44.2653 35.5507 44.3884 35.5599 44.5062 35.5926C44.6239 35.6253 44.7341 35.6808 44.8304 35.7561C44.9267 35.8314 45.0072 35.9249 45.0674 36.0313C45.1276 36.1377 45.1662 36.2549 45.181 36.3762C45.1959 36.4975 45.1867 36.6205 45.1541 36.7383H45.1599ZM33.5 36.2917C34.2362 36.2917 34.9558 36.0733 35.568 35.6643C36.1801 35.2553 36.6572 34.674 36.9389 33.9939C37.2206 33.3137 37.2943 32.5653 37.1507 31.8433C37.0071 31.1212 36.6526 30.458 36.132 29.9374C35.6115 29.4169 34.9482 29.0623 34.2262 28.9187C33.5041 28.7751 32.7557 28.8488 32.0756 29.1305C31.3954 29.4123 30.8141 29.8894 30.4051 30.5015C29.9961 31.1136 29.7778 31.8332 29.7778 32.5694C29.7778 33.5566 30.1699 34.5034 30.868 35.2014C31.566 35.8995 32.5128 36.2917 33.5 36.2917Z" fill="white"/>
</svg>
