<svg width="67" height="67" viewBox="0 0 67 67" fill="none" xmlns="http://www.w3.org/2000/svg">
<rect x="0.465278" y="0.465278" width="66.0694" height="66.0694" rx="33.0347" fill="#017D6E"/>
<rect x="0.465278" y="0.465278" width="66.0694" height="66.0694" rx="33.0347" stroke="#34978B" stroke-width="0.930556"/>
<path d="M44.2014 37.2221C44.2014 37.4982 44.1195 37.7681 43.9661 37.9976C43.8128 38.2272 43.5948 38.4061 43.3397 38.5117C43.0847 38.6174 42.804 38.645 42.5332 38.5912C42.2625 38.5373 42.0138 38.4044 41.8186 38.2091C41.6233 38.0139 41.4904 37.7652 41.4365 37.4945C41.3827 37.2237 41.4103 36.943 41.516 36.688C41.6216 36.4329 41.8005 36.2149 42.0301 36.0615C42.2596 35.9082 42.5295 35.8263 42.8056 35.8263C43.1758 35.8263 43.5308 35.9734 43.7926 36.2351C44.0543 36.4969 44.2014 36.8519 44.2014 37.2221ZM43.6721 41.7923C43.4677 43.11 42.7992 44.3113 41.7872 45.1796C40.7752 46.0479 39.4862 46.526 38.1528 46.5277H35.3611C33.8808 46.5262 32.4615 45.9374 31.4148 44.8907C30.3681 43.8439 29.7793 42.4247 29.7778 40.9444V36.2323C27.9789 36.0056 26.3246 35.1303 25.1253 33.7706C23.926 32.4109 23.2641 30.6602 23.2639 28.8471V23.2638C23.2639 23.017 23.3619 22.7803 23.5364 22.6058C23.711 22.4313 23.9476 22.3333 24.1944 22.3333H26.9861C27.2329 22.3333 27.4696 22.4313 27.6441 22.6058C27.8186 22.7803 27.9167 23.017 27.9167 23.2638C27.9167 23.5106 27.8186 23.7473 27.6441 23.9218C27.4696 24.0963 27.2329 24.1944 26.9861 24.1944H25.125V28.8471C25.1249 29.5867 25.2718 30.3188 25.557 31.0011C25.8422 31.6834 26.2602 32.3023 26.7865 32.8217C27.3129 33.3412 27.9372 33.7509 28.6233 34.027C29.3093 34.3032 30.0433 34.4403 30.7828 34.4305C33.8199 34.3909 36.2917 31.8424 36.2917 28.7506V24.1944H34.4306C34.1838 24.1944 33.9471 24.0963 33.7725 23.9218C33.598 23.7473 33.5 23.5106 33.5 23.2638C33.5 23.017 33.598 22.7803 33.7725 22.6058C33.9471 22.4313 34.1838 22.3333 34.4306 22.3333H37.2222C37.469 22.3333 37.7057 22.4313 37.8802 22.6058C38.0547 22.7803 38.1528 23.017 38.1528 23.2638V28.7506C38.1528 32.5705 35.2995 35.7635 31.6389 36.2311V40.9444C31.6389 41.9316 32.031 42.8783 32.7291 43.5764C33.4272 44.2744 34.3739 44.6666 35.3611 44.6666H38.1528C38.9981 44.6652 39.8178 44.3767 40.4776 43.8483C41.1374 43.32 41.5981 42.5831 41.7843 41.7586C40.6604 41.5062 39.6702 40.8458 39.0051 39.9054C38.3401 38.9649 38.0475 37.8112 38.184 36.6675C38.3205 35.5238 38.8764 34.4714 39.7441 33.7139C40.6118 32.9564 41.7297 32.5476 42.8814 32.5668C44.0331 32.586 45.1367 33.0316 45.9787 33.8176C46.8208 34.6035 47.3414 35.6739 47.4398 36.8215C47.5381 37.9691 47.2074 39.1125 46.5114 40.0303C45.8154 40.9481 44.8037 41.5751 43.6721 41.79V41.7923ZM45.5972 37.2221C45.5972 36.67 45.4335 36.1303 45.1267 35.6712C44.82 35.2121 44.384 34.8543 43.8739 34.643C43.3638 34.4317 42.8025 34.3764 42.2609 34.4841C41.7194 34.5918 41.222 34.8577 40.8315 35.2481C40.4411 35.6386 40.1752 36.136 40.0675 36.6775C39.9598 37.219 40.0151 37.7804 40.2264 38.2905C40.4377 38.8006 40.7955 39.2366 41.2546 39.5433C41.7137 39.8501 42.2534 40.0138 42.8056 40.0138C43.5459 40.0138 44.256 39.7197 44.7796 39.1961C45.3031 38.6726 45.5972 37.9625 45.5972 37.2221Z" fill="white"/>
</svg>
