<svg width="15" height="15" viewBox="0 0 15 15" fill="none" xmlns="http://www.w3.org/2000/svg">
<path d="M13.4861 10.1826C13.3824 10.9707 12.9954 11.6941 12.3973 12.2177C11.7992 12.7412 11.031 13.0292 10.2362 13.0278C5.61827 13.0278 1.86115 9.27067 1.86115 4.65279C1.85973 3.85792 2.1477 3.0897 2.67128 2.49163C3.19486 1.89356 3.91824 1.50653 4.70632 1.40283C4.90561 1.37849 5.10742 1.41926 5.28163 1.51905C5.45584 1.61884 5.59311 1.7723 5.67294 1.95651L6.90127 4.69874V4.70572C6.96239 4.84673 6.98763 5.00068 6.97474 5.15382C6.96185 5.30697 6.91124 5.45454 6.82741 5.58335C6.81694 5.59905 6.80589 5.61359 6.79426 5.62813L5.58337 7.06351C6.01899 7.9487 6.94489 8.86646 7.84171 9.30324L9.25732 8.09876C9.27122 8.08707 9.28579 8.0762 9.30094 8.06619C9.42965 7.98034 9.57772 7.92794 9.73177 7.91373C9.88582 7.89951 10.041 7.92393 10.1832 7.98476L10.1908 7.98825L12.9307 9.216C13.1152 9.29555 13.2691 9.4327 13.3692 9.60693C13.4693 9.78117 13.5103 9.98313 13.4861 10.1826Z" fill="#017D6E"/>
</svg>
