<svg width="37" height="27" viewBox="0 0 37 27" fill="none" xmlns="http://www.w3.org/2000/svg">
<path d="M16.0521 2.79167V18.1458C16.0498 20.3663 15.1667 22.4952 13.5966 24.0653C12.0264 25.6354 9.89756 26.5185 7.67708 26.5208C7.30689 26.5208 6.95185 26.3738 6.69008 26.112C6.42831 25.8502 6.28125 25.4952 6.28125 25.125C6.28125 24.7548 6.42831 24.3998 6.69008 24.138C6.95185 23.8762 7.30689 23.7292 7.67708 23.7292C9.15788 23.7292 10.578 23.1409 11.6251 22.0938C12.6722 21.0468 13.2604 19.6266 13.2604 18.1458V16.75H2.79167C2.05127 16.75 1.3412 16.4559 0.81766 15.9323C0.294121 15.4088 0 14.6987 0 13.9583V2.79167C0 2.05127 0.294121 1.3412 0.81766 0.81766C1.3412 0.294121 2.05127 0 2.79167 0H13.2604C14.0008 0 14.7109 0.294121 15.2344 0.81766C15.758 1.3412 16.0521 2.05127 16.0521 2.79167ZM33.5 0H23.0312C22.2909 0 21.5808 0.294121 21.0572 0.81766C20.5337 1.3412 20.2396 2.05127 20.2396 2.79167V13.9583C20.2396 14.6987 20.5337 15.4088 21.0572 15.9323C21.5808 16.4559 22.2909 16.75 23.0312 16.75H33.5V18.1458C33.5 19.6266 32.9118 21.0468 31.8647 22.0938C30.8176 23.1409 29.3975 23.7292 27.9167 23.7292C27.5465 23.7292 27.1914 23.8762 26.9297 24.138C26.6679 24.3998 26.5208 24.7548 26.5208 25.125C26.5208 25.4952 26.6679 25.8502 26.9297 26.112C27.1914 26.3738 27.5465 26.5208 27.9167 26.5208C30.1371 26.5185 32.266 25.6354 33.8361 24.0653C35.4063 22.4952 36.2894 20.3663 36.2917 18.1458V2.79167C36.2917 2.05127 35.9975 1.3412 35.474 0.81766C34.9505 0.294121 34.2404 0 33.5 0Z" fill="#34978B"/>
</svg>
