<svg width="113" height="88" viewBox="0 0 113 88" fill="none" xmlns="http://www.w3.org/2000/svg">
<path d="M9.19807 0.00537617C8.17313 -0.0720277 7.2795 0.696106 7.20209 1.72105C7.12469 2.746 7.89282 3.63963 8.91777 3.71703L9.19807 0.00537617ZM102.498 48.2229L100.67 48.5713L102.498 48.2229ZM97.6607 87.6231L112.482 72.062L91.5952 67.0066L97.6607 87.6231ZM9.05792 1.8612C8.91777 3.71703 8.91768 3.71702 8.91792 3.71704C8.91844 3.71708 8.919 3.71712 8.92003 3.7172C8.92209 3.71736 8.92544 3.71762 8.93008 3.71798C8.93937 3.71869 8.9538 3.71982 8.97331 3.72136C9.01234 3.72445 9.07166 3.72922 9.15065 3.73577C9.30863 3.74886 9.54529 3.76908 9.85562 3.79724C10.4763 3.85356 11.3915 3.94163 12.5613 4.06799C14.9012 4.32075 18.2579 4.72653 22.3118 5.33755C30.4254 6.56047 41.3041 8.60143 52.4019 11.8726C63.5168 15.1488 74.7531 19.6308 83.6436 25.6926C92.536 31.7557 98.897 39.2668 100.67 48.5713L102.498 48.2229L104.327 47.8745C102.3 37.2394 95.0806 28.9856 85.7405 22.6172C76.3984 16.2475 64.7495 11.6316 53.4543 8.30223C42.142 4.96785 31.0856 2.8957 22.8666 1.6569C18.7542 1.03707 15.3453 0.624837 12.9611 0.367296C11.7689 0.23851 10.8324 0.148359 10.192 0.0902455C9.87174 0.0611876 9.62546 0.0401361 9.45815 0.0262666C9.37449 0.0193317 9.31057 0.0141922 9.26701 0.0107449C9.24524 0.00902114 9.22855 0.0077205 9.21704 0.00683009C9.21128 0.00638477 9.20681 0.00604214 9.20365 0.00580031C9.20207 0.00567949 9.20067 0.00557333 9.19988 0.00551311C9.19881 0.00543218 9.19807 0.00537617 9.05792 1.8612ZM102.498 48.2229L100.67 48.5713C101.919 55.1212 101.104 63.5731 99.7694 71.0135L101.601 71.3422L103.433 71.6709C104.786 64.1337 105.708 55.1232 104.327 47.8745L102.498 48.2229Z" fill="#017D6E"/>
</svg>
