<svg width="113" height="91" viewBox="0 0 113 91" fill="none" xmlns="http://www.w3.org/2000/svg">
<path d="M100.707 90.9812C101.728 91.0943 102.648 90.3578 102.761 89.3362C102.874 88.3146 102.138 87.3947 101.116 87.2816L100.707 90.9812ZM9.1459 39.5369L10.9852 39.2525L9.1459 39.5369ZM15.3557 0.329499L-2.32387e-05 15.3638L20.698 21.1452L15.3557 0.329499ZM100.911 89.1314C101.116 87.2816 101.116 87.2816 101.116 87.2816C101.116 87.2815 101.115 87.2814 101.114 87.2813C101.112 87.2811 101.109 87.2807 101.104 87.2802C101.095 87.2792 101.08 87.2775 101.061 87.2753C101.022 87.2709 100.963 87.264 100.884 87.2547C100.727 87.2361 100.491 87.2077 100.182 87.1687C99.5635 87.0907 98.6519 86.9708 97.4872 86.8037C95.1576 86.4694 91.8171 85.9467 87.787 85.1946C79.721 83.6893 68.9202 81.2699 57.9433 77.6134C46.9495 73.9513 35.8765 69.0799 27.203 62.7115C18.5276 56.3418 12.4326 48.6132 10.9852 39.2525L9.1459 39.5369L7.30665 39.8213C8.9611 50.5206 15.8878 59.0214 25 65.7118C34.1142 72.4037 45.5948 77.4234 56.767 81.1449C67.956 84.872 78.9334 87.3288 87.1041 88.8536C91.1923 89.6166 94.5848 90.1476 96.9586 90.4882C98.1456 90.6585 99.0783 90.7813 99.7163 90.8617C100.035 90.9019 100.281 90.9315 100.447 90.9512C100.531 90.9611 100.595 90.9685 100.638 90.9734C100.66 90.9759 100.676 90.9778 100.688 90.9791C100.693 90.9797 100.698 90.9802 100.701 90.9806C100.703 90.9807 100.704 90.9809 100.705 90.981C100.706 90.9811 100.707 90.9812 100.911 89.1314ZM9.1459 39.5369L10.9852 39.2525C9.96621 32.663 11.0747 24.2447 12.6686 16.8554L10.8494 16.463L9.03012 16.0706C7.41547 23.556 6.179 32.5288 7.30665 39.8213L9.1459 39.5369Z" fill="#017D6E"/>
</svg>
